<svg width="250" height="250" viewBox="0 0 250 250" fill="none" xmlns="http://www.w3.org/2000/svg">
<path d="M206.25 167.5V81C206.25 74.75 201.25 70 195.25 70H57.25C51 70 46.25 75 46.25 81V167.5H206.25Z" fill="#7933FF"/>
<path d="M206.25 81V167.5H202V81C202 74.75 197 70 191 70H195.25C201.25 69.75 206.25 74.75 206.25 81Z" fill="#7933FF" fill-opacity="0.6"/>
<path d="M46.25 165.75V171.5C46.25 177.75 51.25 182.5 57.25 182.5H195C201.25 182.5 206 177.5 206 171.5V165.75H46.25Z" fill="#E5ECF7"/>
<path d="M148.5 182.75L152.5 198.25H100L104 182.75H148.5Z" fill="#D3DDED"/>
<path d="M152.5 198.25H148.25L144.25 182.75H148.5L152.5 198.25Z" fill="#C7D2E5"/>
<path d="M165.5 203C165.5 205.75 163.25 207.75 160.75 207.75H92C89.25 207.75 87.25 205.5 87.25 203C87.25 201.75 87.75 200.5 88.75 199.5C89.75 198.75 90.75 198 92.25 198H161C163.25 198.25 165.5 200.5 165.5 203Z" fill="#E5ECF7"/>
<path d="M206.25 165.75V171.5C206.25 177.5 201.25 182.5 195.25 182.5H191C197.25 182.5 202 177.5 202 171.5V165.75H206.25ZM165.5 203C165.5 205.75 163.25 207.75 160.75 207.75H156.5C159.25 207.75 161.25 205.5 161.25 203C161.25 200.25 159 198.25 156.5 198.25H160.75C163.25 198.25 165.5 200.5 165.5 203Z" fill="#D3DDED"/>
<path d="M195 87.25V148.5C195 152 192.25 154.75 188.75 154.75H63.75C60.25 154.75 57.5 152 57.5 148.5V87.25C57.5 83.75 60.25 81 63.75 81H188.75C192 81 195 83.75 195 87.25Z" fill="white"/>
<path d="M126.25 133.25C149.584 133.25 168.5 114.334 168.5 91C168.5 67.666 149.584 48.75 126.25 48.75C102.916 48.75 84 67.666 84 91C84 114.334 102.916 133.25 126.25 133.25Z" fill="#FB6154"/>
<path d="M156.25 121C139.75 137.5 113 137.5 96.5 121C95.5 120 94.5 119 93.5 117.75C110.25 131.25 134.5 130.25 150 114.75C165.5 99.25 166.5 74.75 153 58.25C154 59.25 155.25 60 156.25 61.25C172.75 77.5 172.75 104.5 156.25 121Z" fill="#B3261E"/>
<path d="M102.5 72.75L144.5 114.75C132.75 123.75 115.75 123 105 112.25C94.25 101.5 93.5 84.5 102.5 72.75ZM150 109.25L108 67.25C119.75 58.25 136.75 59 147.5 69.75C158.25 80.5 159 97.5 150 109.25Z" fill="white"/>
</svg>
