<svg width="167" height="167" viewBox="0 0 167 167" fill="none" xmlns="http://www.w3.org/2000/svg">
<path fill-rule="evenodd" clip-rule="evenodd" d="M159.333 112.301L83.6781 66.9058L83.5 66.7993L0 116.901L83.5 167L167 116.901L159.333 112.301ZM83.4993 91.6482L63.4642 79.627L83.5 67.6051L103.535 79.627L83.4993 91.6482ZM104.207 80.0299L124.241 92.0504L104.205 104.072L84.1708 92.0518L104.207 80.0299ZM62.792 80.0306L82.8271 92.0518L62.792 104.072L42.7576 92.0511L62.792 80.0306ZM83.4993 92.4547L103.534 104.475L83.4993 116.496L63.4642 104.475L83.4993 92.4547ZM104.206 104.878L124.241 116.899L104.205 128.921L84.1708 116.899L104.206 104.878ZM104.877 104.475L124.913 92.4533L144.948 104.475L124.913 116.496L104.877 104.475ZM42.0861 92.454L62.1205 104.475L42.0861 116.496L22.0523 104.475L42.0861 92.454ZM62.7927 104.878L82.8278 116.899L62.7934 128.921L42.7583 116.899L62.7927 104.878ZM62.1219 129.323L42.0854 141.345L22.0496 129.323L42.0861 117.302L62.1219 129.323ZM62.7934 129.726L82.8278 141.747L62.7913 153.769L42.7569 141.748L62.7934 129.726ZM63.4649 129.323L83.4993 117.302L103.534 129.323L83.4993 141.344L63.4649 129.323ZM104.205 129.727L124.242 141.75L104.207 153.77L84.1708 141.748L104.205 129.727ZM104.877 129.323L124.913 117.302L144.95 129.324L124.915 141.346L104.877 129.323ZM125.585 116.899L145.621 104.878L158.15 112.397L165.657 116.901L145.622 128.922L125.585 116.899ZM1.89406 116.57L21.3802 104.878L41.4146 116.899L21.3781 128.921L1.34365 116.901L1.89406 116.57ZM63.4628 154.172L83.4993 142.15L103.537 154.172L83.5 166.194L63.4628 154.172Z" fill="#7933FF" fill-opacity="0.6"/>
<path fill-rule="evenodd" clip-rule="evenodd" d="M79.8287 45.8833C79.8287 48.3952 83.6718 50.4319 88.4132 50.4319C93.1539 50.4319 96.997 48.3952 96.997 45.8833C96.997 43.3706 93.1539 41.3346 88.4132 41.3346C83.6725 41.3339 79.8287 43.3706 79.8287 45.8833ZM67.0776 45.8833C67.0776 38.831 76.63 33.1133 88.4125 33.1133C100.196 33.1133 109.748 38.8303 109.748 45.8833C109.748 52.9355 100.196 58.6532 88.4125 58.6532C76.63 58.6532 67.0776 52.9355 67.0776 45.8833ZM103.963 116.567L93.9138 110.409L130.601 88.5191L24.2978 88.5601H24.2957C23.1514 88.5599 22.039 88.1837 21.1295 87.4893C20.2201 86.7949 19.5641 85.8208 19.2625 84.7171C18.9608 83.6133 19.0303 82.441 19.4602 81.3806C19.8902 80.3202 20.6567 79.4305 21.6418 78.8484L62.643 54.2493L73.0666 60.5034L43.4046 78.1157L149.543 78.0746H149.545C150.687 78.0748 151.798 78.4497 152.707 79.1419C153.615 79.834 154.272 80.8052 154.575 81.9064C154.879 83.0076 154.813 84.178 154.387 85.238C153.962 86.298 153.2 87.1891 152.219 87.7745L103.963 116.567ZM77.4455 130.338C72.7048 130.338 68.861 128.301 68.861 125.789C68.861 123.277 72.7041 121.24 77.4455 121.24C82.1862 121.24 86.03 123.277 86.03 125.789C86.0293 128.301 82.1862 130.338 77.4455 130.338ZM77.4455 113.019C65.6623 113.019 56.1099 118.736 56.1099 125.789C56.1099 132.842 65.6623 138.559 77.4455 138.559C89.2288 138.559 98.7805 132.842 98.7805 125.789C98.7805 118.736 89.2288 113.019 77.4455 113.019Z" fill="#7933FF"/>
</svg>
