<svg width="105" height="105" viewBox="0 0 105 105" fill="none" xmlns="http://www.w3.org/2000/svg">
<path fill-rule="evenodd" clip-rule="evenodd" d="M99.6354 70.1057L52.5208 41.8359L52.4099 41.7696L0.409912 72.9704L52.4099 104.17L104.41 72.9704L99.6354 70.1057ZM52.4095 57.2443L39.9325 49.7581L52.4099 42.2714L64.8869 49.7581L52.4095 57.2443ZM65.3055 50.009L77.7816 57.4948L65.3042 64.9815L52.8276 57.4957L65.3055 50.009ZM39.5139 50.0094L51.9909 57.4957L39.5139 64.9815L27.0374 57.4952L39.5139 50.0094ZM52.4095 57.7466L64.8865 65.2324L52.4095 72.7187L39.9325 65.2324L52.4095 57.7466ZM65.3046 65.4833L77.7816 72.9696L65.3042 80.4558L52.8276 72.9696L65.3046 65.4833ZM65.7228 65.2324L78.1997 57.7457L90.6767 65.232L78.1997 72.7182L65.7228 65.2324ZM26.6192 57.7461L39.0957 65.2324L26.6192 72.7182L14.1431 65.2324L26.6192 57.7461ZM39.5143 65.4833L51.9913 72.9696L39.5148 80.4558L27.0378 72.9696L39.5143 65.4833ZM39.0966 80.7067L26.6188 88.1934L14.1414 80.7067L26.6192 73.22L39.0966 80.7067ZM39.5148 80.9576L51.9913 88.4435L39.5135 95.9302L27.0369 88.4443L39.5148 80.9576ZM39.9329 80.7067L52.4095 73.2205L64.886 80.7067L52.4095 88.1926L39.9329 80.7067ZM65.3042 80.9581L77.782 88.4452L65.3055 95.931L52.8276 88.4439L65.3042 80.9581ZM65.7228 80.7067L78.2002 73.2205L90.6784 80.7072L78.201 88.1939L65.7228 80.7067ZM78.6183 72.9696L91.0957 65.4833L98.8988 70.1655L103.574 72.9704L91.0966 80.4567L78.6183 72.9696ZM1.58945 72.7646L13.7245 65.4833L26.201 72.9691L13.7232 80.4558L1.24668 72.9704L1.58945 72.7646ZM39.9316 96.1815L52.4095 88.6948L64.8877 96.1815L52.4099 103.668L39.9316 96.1815Z" fill="#7933FF" fill-opacity="0.6"/>
<path fill-rule="evenodd" clip-rule="evenodd" d="M65.4272 28.1417C65.8298 29.7311 65.6387 31.6044 64.8769 33.6766C63.3108 31.8016 61.3768 29.9105 59.0793 28.0086L63.7389 25.1599C64.3807 25.8194 65.0879 26.8022 65.4272 28.1417ZM62.2825 18.6378L53.6132 23.9375C50.3541 21.7392 47.8564 20.4114 47.7073 20.3326L46.1057 19.4858L2.46821 46.5202L6.43581 49.2606C6.53288 49.3278 7.26391 49.8296 8.50671 50.6052L1.91788 54.6331C1.52265 54.8741 1.18549 55.1993 0.930425 55.5856C0.675365 55.9719 0.508696 56.4098 0.44231 56.8679C0.375923 57.326 0.411455 57.7931 0.546369 58.236C0.681283 58.6788 0.912256 59.0864 1.22281 59.4296C1.49408 59.7299 4.02778 62.4045 9.36861 63.8592C11.6462 64.4793 14.1123 64.7913 16.7283 64.7913C17.582 64.7913 18.4521 64.7579 19.3361 64.6912C23.5832 64.3718 28.1939 63.2759 33.0446 61.4338C36.6153 62.3395 40.0178 62.8642 43.2171 62.9999C43.7783 63.0241 44.3321 63.0358 44.8807 63.0358C50.6354 63.0358 55.7123 61.7263 60.0114 59.1337L65.9225 62.7173L55.243 69.1276C54.7753 69.4083 54.3882 69.8053 54.1195 70.28C53.8507 70.7547 53.7095 71.2908 53.7096 71.8363C53.7096 72.3818 53.8509 72.918 54.1197 73.3926C54.3885 73.8672 54.7757 74.2642 55.2434 74.5447L67.089 81.6527C67.5797 81.9472 68.1412 82.1028 68.7135 82.1027C69.2857 82.1026 69.8472 81.9469 70.3377 81.6523L99.9517 63.8795C100.419 63.5988 100.806 63.2019 101.075 62.7272C101.344 62.2525 101.485 61.7164 101.485 61.171C101.485 60.6256 101.344 60.0894 101.075 59.6148C100.806 59.1401 100.419 58.7431 99.9517 58.4624L88.1061 51.3523C87.6154 51.0578 87.0539 50.9022 86.4816 50.9022C85.9093 50.9022 85.3477 51.0578 84.857 51.3523L72.0524 59.0379L65.4428 55.0304C66.3875 54.0901 67.1822 53.1121 67.8214 52.1007C69.2631 49.8192 69.943 47.3561 69.842 44.7791C69.7809 43.2234 69.4364 41.6474 68.8107 40.0544C71.7101 35.1144 72.6223 30.5341 71.522 26.4248C70.0985 21.1069 65.8753 18.7778 65.3982 18.5299C64.9135 18.2781 64.372 18.1556 63.8262 18.1746C63.2803 18.1935 62.7486 18.353 62.2825 18.6378ZM22.6173 57.9008C19.9395 56.7778 17.3128 55.5366 14.745 54.1807L9.60218 57.3245C10.1681 57.5342 10.8029 57.7323 11.5106 57.9043C13.9702 58.5023 17.6318 58.8338 22.6173 57.9008ZM14.2224 46.6671C17.475 48.5547 22.35 51.1283 27.8776 53.1931C33.5863 55.3255 38.8574 56.5033 43.5447 56.6944C49.1209 56.9215 53.8615 55.732 57.635 53.158L57.7251 53.0986C61.7413 50.5554 63.6393 47.916 63.5279 45.0304C63.3897 41.461 60.1457 36.9535 54.3932 32.3376C51.2654 29.8278 48.1155 27.8587 46.3029 26.7927L14.2224 46.6671ZM68.7127 75.2606L63.0053 71.8355L86.4816 57.7448L92.1899 61.1712L68.7127 75.2606Z" fill="#7933FF"/>
</svg>
