<svg width="105" height="105" viewBox="0 0 105 105" fill="none" xmlns="http://www.w3.org/2000/svg">
<path fill-rule="evenodd" clip-rule="evenodd" d="M99.6354 70.2757L52.5208 42.0059L52.4099 41.9396L0.409912 73.1405L52.4099 104.34L104.41 73.1405L99.6354 70.2757ZM52.4095 57.4144L39.9325 49.9281L52.4099 42.4414L64.8869 49.9281L52.4095 57.4144ZM65.3055 50.179L77.7816 57.6648L65.3042 65.1515L52.8276 57.6657L65.3055 50.179ZM39.5139 50.1794L51.9909 57.6657L39.5139 65.1515L27.0374 57.6653L39.5139 50.1794ZM52.4095 57.9166L64.8865 65.4024L52.4095 72.8887L39.9325 65.4024L52.4095 57.9166ZM65.3046 65.6533L77.7816 73.1396L65.3042 80.6259L52.8276 73.1396L65.3046 65.6533ZM65.7228 65.4024L78.1997 57.9157L90.6767 65.402L78.1997 72.8883L65.7228 65.4024ZM26.6192 57.9162L39.0957 65.4024L26.6192 72.8883L14.1431 65.4024L26.6192 57.9162ZM39.5143 65.6533L51.9913 73.1396L39.5148 80.6259L27.0378 73.1396L39.5143 65.6533ZM39.0966 80.8768L26.6188 88.3635L14.1414 80.8768L26.6192 73.3901L39.0966 80.8768ZM39.5148 81.1277L51.9913 88.6135L39.5135 96.1002L27.0369 88.6144L39.5148 81.1277ZM39.9329 80.8768L52.4095 73.3905L64.886 80.8768L52.4095 88.3626L39.9329 80.8768ZM65.3042 81.1281L77.782 88.6152L65.3055 96.1011L52.8276 88.6139L65.3042 81.1281ZM65.7228 80.8768L78.2002 73.3905L90.6784 80.8772L78.201 88.3639L65.7228 80.8768ZM78.6183 73.1396L91.0957 65.6533L98.8988 70.3355L103.574 73.1405L91.0966 80.6267L78.6183 73.1396ZM1.58945 72.9346L13.7245 65.6533L26.201 73.1392L13.7232 80.6259L1.24668 73.1405L1.58945 72.9346ZM39.9316 96.3515L52.4095 88.8648L64.8877 96.3515L52.4099 103.838L39.9316 96.3515Z" fill="#7933FF" fill-opacity="0.6"/>
<path fill-rule="evenodd" clip-rule="evenodd" d="M50.1236 28.914C50.1236 30.4784 52.5169 31.7467 55.4697 31.7467C58.422 31.7467 60.8153 30.4784 60.8153 28.914C60.8153 27.3493 58.422 26.0813 55.4697 26.0813C52.5174 26.0809 50.1236 27.3493 50.1236 28.914ZM42.1828 28.914C42.1828 24.5222 48.1316 20.9615 55.4692 20.9615C62.8073 20.9615 68.7561 24.5218 68.7561 28.914C68.7561 33.3059 62.8073 36.8666 55.4692 36.8666C48.1316 36.8666 42.1828 33.3059 42.1828 28.914ZM65.1534 72.9325L58.8952 69.0975L81.7422 55.4657L15.5415 55.4912H15.5402C14.8276 55.4911 14.1348 55.2568 13.5685 54.8243C13.0021 54.3919 12.5936 53.7853 12.4057 53.0979C12.2179 52.4106 12.2612 51.6805 12.5289 51.0201C12.7966 50.3598 13.274 49.8057 13.8874 49.4432L39.4212 34.124L45.9125 38.0188L27.4404 48.9869L93.5384 48.9613H93.5397C94.2511 48.9614 94.9428 49.1949 95.5087 49.6259C96.0745 50.057 96.4834 50.6618 96.6724 51.3476C96.8615 52.0334 96.8203 52.7622 96.5553 53.4223C96.2902 54.0825 95.8159 54.6374 95.205 55.002L65.1534 72.9325ZM48.6395 81.5086C45.6872 81.5086 43.2934 80.2402 43.2934 78.6754C43.2934 77.1111 45.6867 75.8427 48.6395 75.8427C51.5918 75.8427 53.9855 77.1111 53.9855 78.6754C53.9851 80.2402 51.5918 81.5086 48.6395 81.5086ZM48.6395 70.7233C41.3014 70.7233 35.3526 74.2836 35.3526 78.6754C35.3526 83.0677 41.3014 86.628 48.6395 86.628C55.9775 86.628 61.9259 83.0677 61.9259 78.6754C61.9259 74.2836 55.9775 70.7233 48.6395 70.7233Z" fill="#7933FF"/>
</svg>
