<svg width="105" height="104" viewBox="0 0 105 104" fill="none" xmlns="http://www.w3.org/2000/svg">
<path fill-rule="evenodd" clip-rule="evenodd" d="M99.4705 69.9357L52.3559 41.6659L52.245 41.5996L0.244995 72.8004L52.245 104L104.245 72.8004L99.4705 69.9357ZM52.2446 57.0743L39.7676 49.5881L52.245 42.1014L64.722 49.5881L52.2446 57.0743ZM65.1406 49.839L77.6167 57.3248L65.1393 64.8115L52.6627 57.3257L65.1406 49.839ZM39.349 49.8394L51.826 57.3257L39.349 64.8115L26.8725 57.3252L39.349 49.8394ZM52.2446 57.5766L64.7215 65.0624L52.2446 72.5487L39.7676 65.0624L52.2446 57.5766ZM65.1397 65.3133L77.6167 72.7996L65.1393 80.2858L52.6627 72.7996L65.1397 65.3133ZM65.5579 65.0624L78.0348 57.5757L90.5118 65.062L78.0348 72.5482L65.5579 65.0624ZM26.4543 57.5761L38.9308 65.0624L26.4543 72.5482L13.9782 65.0624L26.4543 57.5761ZM39.3494 65.3133L51.8264 72.7996L39.3499 80.2858L26.8729 72.7996L39.3494 65.3133ZM38.9317 80.5367L26.4539 88.0234L13.9765 80.5367L26.4543 73.05L38.9317 80.5367ZM39.3499 80.7876L51.8264 88.2735L39.3486 95.7602L26.872 88.2743L39.3499 80.7876ZM39.768 80.5367L52.2446 73.0505L64.7211 80.5367L52.2446 88.0226L39.768 80.5367ZM65.1393 80.7881L77.6171 88.2752L65.1406 95.761L52.6627 88.2739L65.1393 80.7881ZM65.5579 80.5367L78.0353 73.0505L90.5135 80.5372L78.0361 88.0239L65.5579 80.5367ZM78.4534 72.7996L90.9308 65.3133L98.7339 69.9955L103.409 72.8004L90.9317 80.2867L78.4534 72.7996ZM1.42453 72.5946L13.5596 65.3133L26.0361 72.7991L13.5583 80.2858L1.08176 72.8004L1.42453 72.5946ZM39.7667 96.0115L52.2446 88.5248L64.7228 96.0115L52.245 103.498L39.7667 96.0115Z" fill="#7933FF" fill-opacity="0.6"/>
<path fill-rule="evenodd" clip-rule="evenodd" d="M52.2975 32.1642C43.4982 32.1642 35.15 34.2333 28.4706 37.9535L20.6191 33.2757L14.3006 37.0721L22.6189 42.0134C17.2733 46.6349 14.2118 52.4762 14.2118 58.7596C14.2118 66.2194 18.5265 73.0557 25.8559 77.9675C32.901 82.6887 42.3087 85.3554 52.2979 85.3554C62.2871 85.3554 71.6952 82.6887 78.7403 77.9675C86.0693 73.0557 90.384 66.219 90.384 58.7596C90.384 51.3002 86.0693 44.4635 78.7403 39.5516C71.6948 34.8305 62.2871 32.1642 52.2975 32.1642ZM52.2975 38.6642C69.9528 38.6642 83.8836 47.9999 83.8836 58.76C83.8836 69.5201 69.9528 78.8558 52.2975 78.8558C34.6426 78.8558 20.7114 69.5197 20.7114 58.76C20.7118 47.9999 34.6426 38.6642 52.2975 38.6642ZM52.71 64.9645L36.1918 55.1521L42.5145 51.353L52.3048 57.1853L62.1393 51.0974L68.5306 54.7872L52.71 64.9645Z" fill="#7933FF"/>
</svg>
