<svg width="167" height="167" viewBox="0 0 167 167" fill="none" xmlns="http://www.w3.org/2000/svg">
<path fill-rule="evenodd" clip-rule="evenodd" d="M159.333 112.301L83.6781 66.9058L83.5 66.7993L0 116.901L83.5 167L167 116.901L159.333 112.301ZM83.4993 91.6482L63.4642 79.627L83.5 67.6051L103.535 79.627L83.4993 91.6482ZM104.207 80.0299L124.241 92.0504L104.205 104.072L84.1708 92.0518L104.207 80.0299ZM62.792 80.0306L82.8271 92.0518L62.792 104.072L42.7576 92.0511L62.792 80.0306ZM83.4993 92.4547L103.534 104.475L83.4993 116.496L63.4642 104.475L83.4993 92.4547ZM104.206 104.878L124.241 116.899L104.205 128.921L84.1708 116.899L104.206 104.878ZM104.877 104.475L124.913 92.4533L144.948 104.475L124.913 116.496L104.877 104.475ZM42.0861 92.454L62.1205 104.475L42.0861 116.496L22.0523 104.475L42.0861 92.454ZM62.7927 104.878L82.8278 116.899L62.7934 128.921L42.7583 116.899L62.7927 104.878ZM62.1219 129.323L42.0854 141.345L22.0496 129.323L42.0861 117.301L62.1219 129.323ZM62.7934 129.726L82.8278 141.747L62.7913 153.769L42.7569 141.748L62.7934 129.726ZM63.4649 129.323L83.4993 117.302L103.534 129.323L83.4993 141.344L63.4649 129.323ZM104.205 129.727L124.242 141.75L104.207 153.77L84.1708 141.748L104.205 129.727ZM104.877 129.323L124.913 117.302L144.95 129.324L124.915 141.346L104.877 129.323ZM125.585 116.899L145.621 104.878L158.15 112.397L165.657 116.901L145.622 128.922L125.585 116.899ZM1.89406 116.57L21.3802 104.878L41.4146 116.899L21.3781 128.921L1.34365 116.901L1.89406 116.57ZM63.4628 154.172L83.4993 142.15L103.537 154.172L83.5 166.194L63.4628 154.172Z" fill="#7933FF" fill-opacity="0.6"/>
<path fill-rule="evenodd" clip-rule="evenodd" d="M104.403 44.916C105.049 47.4684 104.742 50.4764 103.519 53.8039C101.004 50.793 97.8989 47.7564 94.2096 44.7024L101.692 40.128C102.722 41.1871 103.858 42.7652 104.403 44.916ZM99.3532 29.655L85.4323 38.1651C80.199 34.6351 76.1882 32.5031 75.9488 32.3764L73.377 31.0168L3.3052 74.4277L9.67625 78.8282C9.83211 78.936 11.006 79.7418 13.0016 80.9873L2.42149 87.4551C1.78685 87.8421 1.24544 88.3644 0.835868 88.9847C0.426299 89.605 0.158668 90.3081 0.0520669 91.0437C-0.0545345 91.7794 0.00252039 92.5295 0.219162 93.2405C0.435803 93.9516 0.806692 94.6061 1.30537 95.1573C1.74096 95.6395 5.8095 99.9342 14.3856 102.27C18.0429 103.266 22.0029 103.767 26.2037 103.767C27.5745 103.767 28.9717 103.713 30.3912 103.606C37.2111 103.093 44.6147 101.334 52.4039 98.3755C58.1376 99.8298 63.6012 100.672 68.7386 100.89C69.6397 100.929 70.529 100.948 71.4099 100.948C80.6505 100.948 88.8029 98.8452 95.7063 94.682L105.198 100.437L88.0493 110.73C87.2983 111.181 86.6767 111.818 86.2452 112.58C85.8137 113.343 85.5869 114.204 85.587 115.08C85.587 115.955 85.8139 116.816 86.2456 117.579C86.6772 118.341 87.2989 118.978 88.05 119.429L107.071 130.842C107.859 131.315 108.761 131.565 109.68 131.565C110.599 131.565 111.5 131.315 112.288 130.842L159.841 102.303C160.592 101.852 161.214 101.215 161.645 100.452C162.077 99.6902 162.303 98.8293 162.303 97.9535C162.303 97.0777 162.077 96.2168 161.645 95.4546C161.214 94.6924 160.592 94.0549 159.841 93.6042L140.82 82.187C140.032 81.714 139.13 81.4642 138.211 81.4642C137.292 81.4642 136.391 81.714 135.603 82.187L115.041 94.5283L104.428 88.0932C105.945 86.5832 107.221 85.0127 108.247 83.3887C110.562 79.7251 111.654 75.77 111.492 71.6319C111.394 69.1338 110.841 66.6031 109.836 64.0452C114.492 56.1127 115.956 48.7577 114.19 42.1592C111.904 33.6199 105.122 29.8798 104.356 29.4818C103.578 29.0773 102.708 28.8808 101.832 28.9111C100.955 28.9415 100.102 29.1977 99.3532 29.655ZM35.6601 92.7024C31.36 90.8991 27.1422 88.9059 23.0189 86.7287L14.7607 91.7769C15.6695 92.1137 16.6889 92.4317 17.8252 92.708C21.7747 93.6682 27.6545 94.2005 35.6601 92.7024ZM22.1797 74.6636C27.4026 77.6947 35.2307 81.8272 44.1068 85.1429C53.2737 88.5671 61.7378 90.4583 69.2646 90.7652C78.2186 91.1298 85.831 89.2197 91.8903 85.0865L92.0351 84.9912C98.4841 80.9073 101.532 76.669 101.353 72.0355C101.131 66.3039 95.922 59.0658 86.6848 51.6538C81.6623 47.6235 76.6043 44.4617 73.6936 42.7499L22.1797 74.6636ZM109.679 120.578L100.514 115.078L138.211 92.4519L147.377 97.9539L109.679 120.578Z" fill="#7933FF"/>
</svg>
